<?xml version="1.0" standalone="no"?>
<!DOCTYPE svg PUBLIC "-//W3C//DTD SVG 20010904//EN"
 "http://www.w3.org/TR/2001/REC-SVG-20010904/DTD/svg10.dtd">
<svg version="1.0" xmlns="http://www.w3.org/2000/svg"
 width="250.000000pt" height="250.000000pt" viewBox="0 0 250.000000 250.000000"
 preserveAspectRatio="xMidYMid meet">
<metadata>
Created by potrace 1.14, written by Peter Selinger 2001-2017
</metadata>
<g transform="translate(0.000000,250.000000) scale(0.100000,-0.100000)"
fill="#000000" stroke="none">
<path d="M1149 1780 c-15 -4 -47 -10 -73 -13 -25 -3 -50 -8 -54 -10 -4 -3 -23
-8 -42 -11 -64 -10 -310 -93 -310 -105 0 -3 12 -7 28 -7 204 -10 323 -133 227
-236 -54 -59 -193 -70 -286 -24 -36 18 -36 12 -4 -26 96 -114 -99 -190 -259
-99 l-54 30 7 -27 c25 -85 86 -157 159 -187 41 -18 127 -21 324 -12 147 7 193
-4 252 -57 96 -89 -3 -165 -197 -153 l-92 6 40 -18 c57 -25 189 -68 265 -85
114 -25 195 -29 675 -29 515 0 514 0 578 61 62 59 71 91 71 267 0 136 -3 166
-19 200 -16 34 -19 66 -21 205 -1 178 -7 207 -58 267 -14 17 -46 41 -70 53
-43 20 -54 21 -552 19 -280 -1 -521 -5 -535 -9z m981 -310 l0 -89 -280 0 -280
-1 0 90 0 90 280 0 280 0 0 -90z m42 -405 c2 -45 2 -90 0 -99 -3 -14 -36 -16
-303 -16 l-299 0 0 99 0 100 299 0 300 0 3 -84z"/>
<path d="M375 1606 c-5 -2 -23 -7 -40 -11 l-30 -7 27 -14 c44 -23 52 -48 23
-76 -29 -29 -116 -72 -165 -82 -19 -4 -46 -10 -60 -12 -36 -8 -35 -10 12 -29
107 -43 322 1 409 84 24 23 46 73 41 94 -6 28 -59 49 -136 53 -39 2 -75 2 -81
0z"/>
</g>
</svg>
