<svg width="175" height="40" viewBox="0 0 175 40" fill="none" xmlns="http://www.w3.org/2000/svg">
<path fill-rule="evenodd" clip-rule="evenodd" d="M1.11511 5.73029C0.821388 5.14926 1.05808 4.45029 1.63056 4.16089L9.61106 0.126473C10.1921 -0.167252 10.891 0.0694398 11.1805 0.641917C11.4612 1.1973 11.2544 1.87045 10.7205 2.17254L12.3446 5.38512C12.9061 6.4959 14.3521 7.19172 15.5935 7.12201C22.0233 6.7896 28.1529 10.2564 31.1204 16.1265C35.2196 24.2351 31.9707 34.1275 23.862 38.2267C15.7533 42.3259 5.86096 39.0769 1.76175 30.9683C-1.19288 25.1025 -0.358827 18.1152 3.7211 13.1347C4.51327 12.1763 4.81031 10.5993 4.24877 9.48855L2.62038 6.26742C2.06058 6.51823 1.39588 6.28567 1.11511 5.73029ZM2.31869 21.6562C3.09933 21.9054 5.20286 15.9581 4.80265 15.4864C4.39011 15.0202 1.34124 21.1623 2.31869 21.6562Z" fill="#FAFAFA"/>
<path d="M30.2218 17.1902C30.2181 17.1833 30.2083 17.1832 30.2046 17.19C29.8834 17.7815 29.6121 18.5014 29.3443 19.2118C28.7549 20.7756 28.1829 22.2933 27.1356 22.2933C26.0725 22.2933 25.583 23.001 25.0858 23.7198C24.5729 24.4614 24.0518 25.2148 22.8841 25.2148C21.7344 25.2148 21.1944 23.3428 20.6544 21.4709C20.1144 19.599 19.5743 17.727 18.4246 17.727C17.3009 17.727 16.7258 19.8844 16.1553 22.0247C15.5937 24.1313 15.0366 26.2213 13.9651 26.2213C12.8936 26.2213 12.3537 25.8045 11.8094 25.3844C11.2564 24.9576 10.699 24.5274 9.57527 24.5274C8.43296 24.5274 7.821 25.6195 7.22409 26.6848C6.65585 27.699 6.10126 28.6888 5.11576 28.6888C4.12225 28.6888 3.51614 29.4454 2.89994 30.2146C2.84753 30.28 2.79505 30.3455 2.74226 30.4107C2.67243 30.4968 2.65856 30.616 2.70957 30.7145C6.55096 38.1034 15.8211 41.0639 23.4198 37.3286C28.6057 34.7794 31.6704 29.7715 31.8728 24.4994V23.3847C31.7924 21.2919 31.2573 19.182 30.2218 17.1902Z" fill="url(#paint0_linear_1493_85)"/>
<path d="M52.5821 21.8214C52.5821 19.902 52.5821 12.7296 52.5821 12.7296H56.5976C56.5976 12.7296 56.5976 19.8515 56.5976 22.276C56.5976 24.6752 56.5976 30.408 48.6171 30.408C40.6113 30.408 40.6366 24.9782 40.6366 22.2507V12.7296H44.4753V21.8214C44.4753 24.4731 44.5763 26.8976 48.5919 26.8976C52.6579 26.8976 52.5821 23.7407 52.5821 21.8214Z" fill="#FAFAFA"/>
<path d="M63.7075 19.5232V24.852C63.7075 26.8976 64.6166 26.6198 68.3038 26.4178V30.1555C68.3038 30.1555 67.5462 30.408 63.7075 30.408C59.8435 30.408 59.8435 27.2512 59.8435 25.2055V19.5232H57.9746V16.2906H59.8435V12.1993H63.7075V16.2906H68.3038V19.5232H63.7075Z" fill="#FAFAFA"/>
<path d="M76.5331 15.9875C80.8517 15.9875 84.4379 18.2857 84.4379 23.2104C84.4379 28.1856 80.8517 30.408 76.5331 30.408C72.2398 30.408 68.6537 28.1098 68.6537 23.2104C68.6537 18.3362 72.2398 15.9875 76.5331 15.9875ZM76.5331 26.9229C78.9576 26.9229 80.6749 25.7611 80.6749 23.2104C80.6749 20.5839 78.9576 19.4979 76.5331 19.4979C74.1339 19.4979 72.4166 20.5334 72.4166 23.2104C72.4166 25.8622 74.1339 26.9229 76.5331 26.9229Z" fill="#FAFAFA"/>
<path d="M94.791 16.2653C100.776 16.2653 101.408 21.291 101.408 23.3619C101.408 25.256 100.751 30.4585 94.791 30.4585C92.1392 30.4585 90.5229 29.7009 89.5633 28.4634H89.3865V35.8125H85.5477V16.2653H89.3865V18.3362H89.5885C90.5482 17.0987 92.1645 16.2653 94.791 16.2653ZM93.6798 27.1501C97.3417 27.1501 97.7458 24.3721 97.7458 23.3619C97.7458 22.2507 97.3417 19.5737 93.6798 19.5737C90.3462 19.5737 89.6643 21.4426 89.6643 23.3619C89.6643 25.5086 90.3462 27.1501 93.6798 27.1501Z" fill="#FAFAFA"/>
<path d="M106.354 30.408H102.54V16.3411H106.354V30.408ZM106.354 15.3309H102.54V11.8962H106.354V15.3309Z" fill="#FAFAFA"/>
<path d="M119.365 18.3362H119.542V16.2401H123.381V30.408H119.542V28.4381H119.416C118.456 29.6756 116.84 30.408 114.163 30.408C108.228 30.408 107.571 25.2308 107.571 23.3367C107.571 21.2658 108.202 16.2401 114.188 16.2401C116.814 16.2401 118.405 17.0735 119.365 18.3362ZM115.299 27.1249C118.607 27.1249 119.289 25.4833 119.289 23.3367C119.289 21.4173 118.607 19.5484 115.299 19.5484C111.612 19.5484 111.233 22.2255 111.233 23.3367C111.233 24.3469 111.637 27.1249 115.299 27.1249Z" fill="#FAFAFA"/>
<path d="M144.438 21.3913C146.029 21.9469 146.912 23.0834 146.912 25.4068C146.912 28.8162 144.64 30.4325 141.937 30.4325C140.018 30.4325 131.128 30.4325 131.128 30.4325V12.7542H137.922C138.427 12.7542 139.134 12.7542 140.119 12.7542C143.781 12.7542 146.155 14.2442 146.155 17.8051C146.155 19.7245 145.549 20.7852 144.438 21.3913ZM139.008 16.2646C138.023 16.2646 135.497 16.2646 134.967 16.2646V19.977C136.381 19.977 138.2 19.977 139.185 19.977C140.952 19.977 142.392 19.9013 142.392 18.1334C142.392 16.3656 140.877 16.2646 139.008 16.2646ZM139.816 26.9474C141.71 26.9474 143.15 26.8211 143.15 25.0028C143.15 23.3359 142.089 23.0581 140.321 23.0581C139.109 23.0581 136.002 23.0581 134.967 23.0581V26.9474H138.174C139.69 26.9474 138.528 26.9474 139.816 26.9474Z" fill="#FF6B00"/>
<path d="M155.68 16.012C159.998 16.012 163.585 18.3102 163.585 23.2349C163.585 28.2101 159.998 30.4325 155.68 30.4325C151.387 30.4325 147.8 28.1343 147.8 23.2349C147.8 18.3607 151.387 16.012 155.68 16.012ZM155.68 26.9474C158.104 26.9474 159.822 25.7856 159.822 23.2349C159.822 20.6084 158.104 19.5225 155.68 19.5225C153.281 19.5225 151.563 20.5579 151.563 23.2349C151.563 25.8867 153.281 26.9474 155.68 26.9474Z" fill="#FF6B00"/>
<path d="M169.441 19.5477V24.8765C169.441 26.9221 170.35 26.6443 174.037 26.4423V30.18C174.037 30.18 173.28 30.4325 169.441 30.4325C165.577 30.4325 165.577 27.2757 165.577 25.23V19.5477H163.708V16.3151H165.577V12.2238H169.441V16.3151H174.037V19.5477H169.441Z" fill="#FF6B00"/>
<defs>
<linearGradient id="paint0_linear_1493_85" x1="31.8728" y1="22.7826" x2="1.1409" y2="29.2738" gradientUnits="userSpaceOnUse">
<stop stop-color="#FFA800"/>
<stop offset="1" stop-color="#D40D00"/>
</linearGradient>
</defs>
</svg>
