<svg width="175" height="40" viewBox="0 0 175 40" fill="none" xmlns="http://www.w3.org/2000/svg">
<path fill-rule="evenodd" clip-rule="evenodd" d="M2.078 5.73029C1.78428 5.14926 2.02097 4.45029 2.59345 4.16089L10.5739 0.126473C11.155 -0.167252 11.8539 0.0694398 12.1433 0.641917C12.4241 1.1973 12.2173 1.87045 11.6834 2.17254L13.3075 5.38512C13.869 6.4959 15.315 7.19172 16.5564 7.12201C22.9862 6.7896 29.1158 10.2564 32.0833 16.1265C36.1825 24.2351 32.9335 34.1275 24.8249 38.2267C16.7162 42.3259 6.82385 39.0769 2.72464 30.9683C-0.229988 25.1025 0.604064 18.1152 4.68399 13.1347C5.47616 12.1763 5.7732 10.5993 5.21166 9.48855L3.58327 6.26742C3.02347 6.51823 2.35877 6.28567 2.078 5.73029ZM3.28158 21.6562C4.06222 21.9054 6.16575 15.9581 5.76554 15.4864C5.353 15.0202 2.30414 21.1623 3.28158 21.6562Z" fill="#222325"/>
<path d="M31.1847 17.1902C31.1811 17.1833 31.1712 17.1831 31.1675 17.19C30.8464 17.7814 30.575 18.5014 30.3072 19.2118C29.7179 20.7756 29.1458 22.2933 28.0985 22.2933C27.0354 22.2933 26.5459 23.001 26.0487 23.7198C25.5358 24.4614 25.0147 25.2147 23.847 25.2147C22.6973 25.2147 22.1573 23.3428 21.6173 21.4709C21.0773 19.5989 20.5373 17.727 19.3875 17.727C18.2638 17.727 17.6887 19.8844 17.1182 22.0247C16.5566 24.1313 15.9995 26.2213 14.928 26.2213C13.8566 26.2213 13.3166 25.8045 12.7723 25.3844C12.2193 24.9576 11.6619 24.5273 10.5382 24.5273C9.39588 24.5273 8.78392 25.6195 8.18701 26.6848C7.61877 27.6989 7.06418 28.6887 6.07868 28.6887C5.08517 28.6887 4.47906 29.4453 3.86286 30.2146C3.81045 30.28 3.75797 30.3455 3.70518 30.4106C3.63535 30.4968 3.62148 30.616 3.67249 30.7145C7.51388 38.1033 16.7841 41.0639 24.3828 37.3286C29.5686 34.7794 32.6334 29.7714 32.8357 24.4994V23.3847C32.7553 21.2919 32.2202 19.182 31.1847 17.1902Z" fill="url(#paint0_linear_1493_97)"/>
<path d="M53.545 21.8214C53.545 19.902 53.545 12.7296 53.545 12.7296H57.5606C57.5606 12.7296 57.5606 19.8515 57.5606 22.276C57.5606 24.6752 57.5606 30.408 49.58 30.408C41.5743 30.408 41.5995 24.9782 41.5995 22.2507V12.7296H45.4383V21.8214C45.4383 24.4731 45.5393 26.8976 49.5548 26.8976C53.6208 26.8976 53.545 23.7407 53.545 21.8214Z" fill="#222325"/>
<path d="M64.6704 19.5232V24.852C64.6704 26.8976 65.5796 26.6198 69.2668 26.4178V30.1555C69.2668 30.1555 68.5091 30.408 64.6704 30.408C60.8064 30.408 60.8064 27.2512 60.8064 25.2055V19.5232H58.9375V16.2906H60.8064V12.1993H64.6704V16.2906H69.2668V19.5232H64.6704Z" fill="#222325"/>
<path d="M77.4961 15.9875C81.8146 15.9875 85.4008 18.2857 85.4008 23.2104C85.4008 28.1856 81.8146 30.408 77.4961 30.408C73.2028 30.408 69.6166 28.1098 69.6166 23.2104C69.6166 18.3362 73.2028 15.9875 77.4961 15.9875ZM77.4961 26.9229C79.9205 26.9229 81.6379 25.7611 81.6379 23.2104C81.6379 20.5839 79.9205 19.4979 77.4961 19.4979C75.0969 19.4979 73.3795 20.5334 73.3795 23.2104C73.3795 25.8622 75.0969 26.9229 77.4961 26.9229Z" fill="#222325"/>
<path d="M95.7539 16.2653C101.739 16.2653 102.371 21.291 102.371 23.3619C102.371 25.256 101.714 30.4585 95.7539 30.4585C93.1022 30.4585 91.4859 29.7009 90.5262 28.4634H90.3494V35.8125H86.5107V16.2653H90.3494V18.3362H90.5514C91.5111 17.0987 93.1274 16.2653 95.7539 16.2653ZM94.6427 27.1501C98.3047 27.1501 98.7087 24.3721 98.7087 23.3619C98.7087 22.2507 98.3047 19.5737 94.6427 19.5737C91.3091 19.5737 90.6272 21.4426 90.6272 23.3619C90.6272 25.5086 91.3091 27.1501 94.6427 27.1501Z" fill="#222325"/>
<path d="M107.317 30.408H103.503V16.3411H107.317V30.408ZM107.317 15.3309H103.503V11.8962H107.317V15.3309Z" fill="#222325"/>
<path d="M120.328 18.3362H120.505V16.2401H124.344V30.408H120.505V28.4381H120.379C119.419 29.6756 117.803 30.408 115.126 30.408C109.191 30.408 108.534 25.2308 108.534 23.3367C108.534 21.2658 109.165 16.2401 115.151 16.2401C117.777 16.2401 119.368 17.0735 120.328 18.3362ZM116.262 27.1249C119.57 27.1249 120.252 25.4833 120.252 23.3367C120.252 21.4173 119.57 19.5484 116.262 19.5484C112.575 19.5484 112.196 22.2255 112.196 23.3367C112.196 24.3469 112.6 27.1249 116.262 27.1249Z" fill="#222325"/>
<path d="M145.4 21.3914C146.991 21.947 147.875 23.0834 147.875 25.4069C147.875 28.8163 145.602 30.4326 142.9 30.4326C140.981 30.4326 132.091 30.4326 132.091 30.4326V12.7542H138.885C139.39 12.7542 140.097 12.7542 141.082 12.7542C144.744 12.7542 147.118 14.2443 147.118 17.8052C147.118 19.7246 146.512 20.7853 145.4 21.3914ZM139.971 16.2646C138.986 16.2646 136.46 16.2646 135.93 16.2646V19.9771C137.344 19.9771 139.162 19.9771 140.147 19.9771C141.915 19.9771 143.355 19.9013 143.355 18.1335C143.355 16.3657 141.839 16.2646 139.971 16.2646ZM140.779 26.9474C142.673 26.9474 144.112 26.8212 144.112 25.0028C144.112 23.336 143.052 23.0582 141.284 23.0582C140.072 23.0582 136.965 23.0582 135.93 23.0582V26.9474H139.137C140.653 26.9474 139.491 26.9474 140.779 26.9474Z" fill="#222325"/>
<path d="M156.643 16.0121C160.961 16.0121 164.548 18.3103 164.548 23.235C164.548 28.2102 160.961 30.4326 156.643 30.4326C152.349 30.4326 148.763 28.1344 148.763 23.235C148.763 18.3608 152.349 16.0121 156.643 16.0121ZM156.643 26.9474C159.067 26.9474 160.785 25.7857 160.785 23.235C160.785 20.6085 159.067 19.5225 156.643 19.5225C154.244 19.5225 152.526 20.558 152.526 23.235C152.526 25.8867 154.244 26.9474 156.643 26.9474Z" fill="#222325"/>
<path d="M170.404 19.5478V24.8765C170.404 26.9222 171.313 26.6444 175 26.4423V30.18C175 30.18 174.242 30.4326 170.404 30.4326C166.54 30.4326 166.54 27.2757 166.54 25.2301V19.5478H164.671V16.3152H166.54V12.2239H170.404V16.3152H175V19.5478H170.404Z" fill="#222325"/>
<defs>
<linearGradient id="paint0_linear_1493_97" x1="32.8358" y1="22.7826" x2="2.10382" y2="29.2738" gradientUnits="userSpaceOnUse">
<stop stop-color="#FFA800"/>
<stop offset="1" stop-color="#D40D00"/>
</linearGradient>
</defs>
</svg>
