<svg width="33" height="32" viewBox="0 0 33 32"  xmlns="http://www.w3.org/2000/svg">
<g clip-path="url(#clip0_1_5105)">
<path d="M27.5892 5.99047C25.5492 5.07053 23.3626 4.39057 21.076 4.00393C21.0557 4.00002 21.0346 4.00254 21.0157 4.01114C20.9969 4.01974 20.9811 4.034 20.9707 4.05193C20.6907 4.5439 20.3787 5.18519 20.1601 5.69182C17.7349 5.3295 15.2694 5.3295 12.8443 5.69182C12.6007 5.13034 12.3261 4.58286 12.0216 4.05193C12.0113 4.03377 11.9957 4.0192 11.9769 4.01015C11.9581 4.00109 11.9369 3.998 11.9163 4.00127C9.63104 4.38791 7.44444 5.06786 5.40317 5.98914C5.3856 5.9965 5.37072 6.00906 5.3605 6.02513C1.21129 12.1247 0.0739865 18.0737 0.632637 23.948C0.634192 23.9623 0.638658 23.9763 0.645763 23.9889C0.652869 24.0015 0.662466 24.0125 0.673969 24.0213C3.09576 25.7844 5.79694 27.1275 8.6644 27.9944C8.68439 28.0005 8.70577 28.0005 8.72575 27.9943C8.74573 27.9881 8.76338 27.9761 8.7764 27.9597C9.39344 27.1345 9.94023 26.2591 10.411 25.3425C10.4176 25.33 10.4213 25.3162 10.4221 25.3021C10.4228 25.288 10.4205 25.2739 10.4153 25.2607C10.4101 25.2476 10.4022 25.2357 10.392 25.2259C10.3818 25.2161 10.3697 25.2086 10.3564 25.2039C9.49505 24.8795 8.66052 24.4881 7.86043 24.0333C7.84605 24.0251 7.83394 24.0134 7.82517 23.9994C7.81641 23.9853 7.81126 23.9693 7.81021 23.9528C7.80915 23.9363 7.81221 23.9198 7.81911 23.9047C7.82602 23.8897 7.83655 23.8766 7.84976 23.8666C8.01776 23.7426 8.18575 23.6133 8.34575 23.484C8.36015 23.4724 8.3775 23.465 8.39586 23.4626C8.41422 23.4602 8.43287 23.463 8.44974 23.4707C13.6856 25.8225 19.3561 25.8225 24.5306 23.4707C24.5475 23.4626 24.5664 23.4594 24.585 23.4615C24.6036 23.4637 24.6213 23.471 24.6359 23.4827C24.7959 23.6133 24.9626 23.7426 25.1319 23.8666C25.1453 23.8764 25.156 23.8893 25.1631 23.9042C25.1702 23.9191 25.1735 23.9356 25.1727 23.9521C25.172 23.9686 25.1671 23.9847 25.1586 23.9988C25.15 24.013 25.1381 24.0248 25.1239 24.0333C24.3266 24.4919 23.4973 24.8799 22.6267 25.2025C22.6133 25.2074 22.6011 25.215 22.5909 25.225C22.5808 25.2349 22.5728 25.2469 22.5676 25.2602C22.5625 25.2734 22.5602 25.2876 22.5609 25.3018C22.5617 25.316 22.5655 25.3299 22.572 25.3425C23.052 26.2585 23.6013 27.1304 24.2053 27.9584C24.2178 27.9753 24.2353 27.9881 24.2554 27.9947C24.2754 28.0014 24.297 28.0017 24.3173 27.9957C27.1897 27.1313 29.8953 25.7875 32.3197 24.0213C32.3315 24.013 32.3415 24.0023 32.3488 23.9899C32.3562 23.9775 32.3608 23.9636 32.3624 23.9493C33.029 17.1577 31.2451 11.2568 27.6305 6.0278C27.6217 6.01081 27.607 5.99756 27.5892 5.99047ZM11.1937 20.3709C9.61771 20.3709 8.31775 18.9456 8.31775 17.1977C8.31775 15.4485 9.59238 14.0246 11.1937 14.0246C12.807 14.0246 14.0949 15.4605 14.0696 17.1977C14.0696 18.947 12.795 20.3709 11.1937 20.3709V20.3709ZM21.8267 20.3709C20.2494 20.3709 18.9508 18.9456 18.9508 17.1977C18.9508 15.4485 20.2241 14.0246 21.8267 14.0246C23.44 14.0246 24.7279 15.4605 24.7026 17.1977C24.7026 18.947 23.4413 20.3709 21.8267 20.3709V20.3709Z" />
</g>
<defs>
<clipPath id="clip0_1_5105">
<rect width="32" height="32" transform="translate(0.5)"/>
</clipPath>
</defs>
</svg>
