<svg width="24" height="24" viewBox="0 0 24 24"  xmlns="http://www.w3.org/2000/svg">
<path fill-rule="evenodd" clip-rule="evenodd" d="M10 3C4.477 3 0 7.484 0 13.017C0 17.442 2.865 21.197 6.839 22.521C7.339 22.613 7.521 22.304 7.521 22.038C7.521 21.801 7.513 21.17 7.508 20.335C4.726 20.94 4.139 18.992 4.139 18.992C3.685 17.834 3.029 17.526 3.029 17.526C2.121 16.906 3.098 16.918 3.098 16.918C4.101 16.988 4.629 17.95 4.629 17.95C5.521 19.48 6.97 19.038 7.539 18.782C7.631 18.135 7.889 17.694 8.175 17.444C5.955 17.191 3.62 16.331 3.62 12.493C3.62 11.4 4.01 10.505 4.649 9.805C4.546 9.552 4.203 8.533 4.747 7.155C4.747 7.155 5.587 6.885 7.497 8.181C8.31277 7.95851 9.15444 7.84519 10 7.844C10.85 7.848 11.705 7.959 12.504 8.181C14.413 6.885 15.251 7.154 15.251 7.154C15.797 8.533 15.453 9.552 15.351 9.805C15.991 10.505 16.379 11.4 16.379 12.493C16.379 16.341 14.04 17.188 11.813 17.436C12.172 17.745 12.491 18.356 12.491 19.291C12.491 20.629 12.479 21.71 12.479 22.038C12.479 22.306 12.659 22.618 13.167 22.52C15.1583 21.8521 16.8893 20.5753 18.1155 18.87C19.3416 17.1648 20.0009 15.1173 20 13.017C20 7.484 15.522 3 10 3Z" />
</svg>
