<svg width="162" height="22" viewBox="0 0 162 22" fill="none" xmlns="http://www.w3.org/2000/svg">
<path d="M0 8.90019C1.99971 9.05953 8.00941 6.60237 3.94652 5.46479C5.48556 4.57896 10.1784 4.78028 9.48119 6.65265C8.34543 9.70316 1.55923 10.7019 0 8.90019Z" fill="#FFFEFB"/>
<path d="M10.6866 4.44236L10.5911 4.40784C15.8218 2.26095 20.2025 1.40959 23.7673 1.46514V21.9986C20.3992 22.0405 16.3543 21.1436 11.6683 18.9003C15.9141 20.6986 20.8542 19.1283 18.7349 16.8473C17.1845 15.1786 14.8159 15.3867 12.4179 15.5973C9.00504 15.8971 5.53253 16.2022 4.27413 11.1101C7.61073 14.1256 13.3794 12.329 9.5437 9.13532C17.107 12.646 19.9413 4.44891 10.6866 4.44236Z" fill="#FFFEFB"/>
<path d="M23.7673 22V1.45525H39.1558C39.9101 1.45525 40.5984 1.64548 41.2208 2.02594C41.862 2.4064 42.3711 2.92002 42.7483 3.5668C43.1443 4.19455 43.3423 4.8984 43.3423 5.67834V9.53048C43.3423 9.77778 43.3235 10.0156 43.2858 10.2438C43.2669 10.4531 43.2198 10.6528 43.1443 10.8431C43.4272 11.2045 43.6629 11.623 43.8515 12.0986C44.0401 12.5741 44.1344 13.0497 44.1344 13.5253V17.7769C44.1344 18.5378 43.9364 19.2417 43.5404 19.8885C43.1632 20.5352 42.654 21.0489 42.0128 21.4293C41.3905 21.8098 40.6927 22 39.9195 22H23.7673ZM28.1519 17.5486H39.6932V13.7821H28.1519V17.5486ZM28.1519 9.33074H38.9012V5.90661H28.1519V9.33074Z" fill="#FFFEFB"/>
<path d="M51.2072 22C50.4717 22 49.7928 21.8098 49.1705 21.4293C48.5481 21.0489 48.0484 20.5447 47.6712 19.917C47.2941 19.2892 47.1055 18.6044 47.1055 17.8625V0H51.4618V17.6342H54.7714V22H51.2072Z" fill="#FFFEFB"/>
<path d="M61.0692 22C60.3148 22 59.6265 21.8098 59.0042 21.4293C58.3818 21.0489 57.8821 20.5447 57.5049 19.917C57.1466 19.2892 56.9675 18.6044 56.9675 17.8625V11.5279H69.2726V9.81582H56.9675V5.45006H69.4989C70.2532 5.45006 70.9415 5.64029 71.5639 6.02075C72.1862 6.40121 72.6765 6.90532 73.0348 7.53307C73.412 8.16083 73.6006 8.84565 73.6006 9.58755V22H61.0692ZM61.2955 17.6342H69.2726V15.3515H61.2955V17.6342Z" fill="#FFFEFB"/>
<path d="M79.9618 22C79.2263 22 78.5474 21.8098 77.925 21.4293C77.3027 21.0489 76.803 20.5447 76.4258 19.917C76.0486 19.2892 75.86 18.6044 75.86 17.8625V17.035H80.1881V17.6342H88.1652V15.9222H79.9618C79.2263 15.9222 78.5474 15.732 77.925 15.3515C77.3027 14.971 76.803 14.4669 76.4258 13.8392C76.0486 13.2114 75.86 12.5266 75.86 11.7847V9.58755C75.86 8.84565 76.0486 8.16083 76.4258 7.53307C76.803 6.90532 77.3027 6.40121 77.925 6.02075C78.5474 5.64029 79.2263 5.45006 79.9618 5.45006H88.3915C89.1458 5.45006 89.8341 5.64029 90.4565 6.02075C91.0788 6.40121 91.5785 6.90532 91.9557 7.53307C92.3329 8.16083 92.5214 8.84565 92.5214 9.58755V10.415H88.1652V9.81582H80.1881V11.5279H88.3915C89.1458 11.5279 89.8341 11.7181 90.4565 12.0986C91.0788 12.479 91.5785 12.9831 91.9557 13.6109C92.3329 14.2387 92.5214 14.9235 92.5214 15.6654V17.8625C92.5214 18.6044 92.3329 19.2892 91.9557 19.917C91.5785 20.5447 91.0788 21.0489 90.4565 21.4293C89.8341 21.8098 89.1458 22 88.3915 22H79.9618Z" fill="#FFFEFB"/>
<path d="M99.524 22C98.7696 22 98.0813 21.8098 97.459 21.4293C96.8366 21.0489 96.3369 20.5447 95.9597 19.917C95.5825 19.2892 95.394 18.6044 95.394 17.8625V0.542153H99.722V5.45006H105.804V9.81582H99.722V17.6342H105.804V22H99.524Z" fill="#FFFEFB"/>
<path d="M108.326 22V1.45525H123.715C124.469 1.45525 125.157 1.64548 125.78 2.02594C126.421 2.4064 126.93 2.92002 127.307 3.5668C127.703 4.19455 127.901 4.8984 127.901 5.67834V9.53048C127.901 9.77778 127.882 10.0156 127.845 10.2438C127.826 10.4531 127.779 10.6528 127.703 10.8431C127.986 11.2045 128.222 11.623 128.41 12.0986C128.599 12.5741 128.693 13.0497 128.693 13.5253V17.7769C128.693 18.5378 128.495 19.2417 128.099 19.8885C127.722 20.5352 127.213 21.0489 126.572 21.4293C125.949 21.8098 125.252 22 124.478 22H108.326ZM112.711 17.5486H124.252V13.7821H112.711V17.5486ZM112.711 9.33074H123.46V5.90661H112.711V9.33074Z" fill="#FFFEFB"/>
<path d="M135.738 22C135.002 22 134.323 21.8098 133.701 21.4293C133.079 21.0489 132.579 20.5447 132.202 19.917C131.825 19.2892 131.636 18.6044 131.636 17.8625V9.58755C131.636 8.84565 131.825 8.16083 132.202 7.53307C132.579 6.90532 133.079 6.40121 133.701 6.02075C134.323 5.64029 135.002 5.45006 135.738 5.45006H144.168C144.922 5.45006 145.61 5.64029 146.233 6.02075C146.855 6.40121 147.345 6.90532 147.703 7.53307C148.081 8.16083 148.269 8.84565 148.269 9.58755V17.8625C148.269 18.6044 148.081 19.2892 147.703 19.917C147.345 20.5447 146.855 21.0489 146.233 21.4293C145.61 21.8098 144.922 22 144.168 22H135.738ZM135.964 17.6342H143.941V9.81582H135.964V17.6342Z" fill="#FFFEFB"/>
<path d="M154.911 22C154.157 22 153.469 21.8098 152.846 21.4293C152.224 21.0489 151.724 20.5447 151.347 19.917C150.97 19.2892 150.781 18.6044 150.781 17.8625V0.542153H155.109V5.45006H161.191V9.81582H155.109V17.6342H161.191V22H154.911Z" fill="#FFFEFB"/>
</svg>
