<svg width="33" height="32" viewBox="0 0 33 32"  xmlns="http://www.w3.org/2000/svg">
<g clip-path="url(#clip0_1_5101)">
<path fill-rule="evenodd" clip-rule="evenodd" d="M26.8693 5.90662C27.1988 5.76794 27.5595 5.72011 27.9137 5.76811C28.268 5.81611 28.6029 5.95818 28.8836 6.17953C29.1643 6.40089 29.3805 6.69344 29.5098 7.02673C29.6391 7.36002 29.6767 7.72187 29.6187 8.07462L26.5947 26.4173C26.3013 28.1866 24.36 29.2013 22.7373 28.32C21.38 27.5826 19.364 26.4466 17.5507 25.2613C16.644 24.668 13.8667 22.768 14.208 21.416C14.5013 20.26 19.168 15.916 21.8347 13.3333C22.8813 12.3186 22.404 11.7333 21.168 12.6666C18.0987 14.984 13.1707 18.508 11.5413 19.5C10.104 20.3746 9.35465 20.524 8.45865 20.3746C6.82399 20.1026 5.30799 19.6813 4.07065 19.168C2.39865 18.4746 2.47999 16.176 4.06932 15.5066L26.8693 5.90662Z" />
</g>
<defs>
<clipPath id="clip0_1_5101">
<rect width="32" height="32" fill="white" transform="translate(0.5)"/>
</clipPath>
</defs>
</svg>
